<svg width="48" height="48" viewBox="0 0 48 48" fill="none" xmlns="http://www.w3.org/2000/svg">
  <rect width="48" height="48" rx="10" fill="#001E36"/>
  <path d="M14 34V14H24.3C27.9 14 30.4 16.3 30.4 19.3C30.4 22.3 27.9 24.6 24.3 24.6H19.4V34H14ZM19.4 20.6H24C25.2 20.6 26.1 19.8 26.1 19.1C26.1 18.3 25.2 17.6 24 17.6H19.4V20.6Z" fill="#31A8FF"/>
  <path d="M32 33.7C31.2 33.7 30.4 33.6 29.6 33.3V29.5C30.3 29.9 31.2 30.1 32.1 30.1C33 30.1 33.7 29.8 34.2 29.2C34.7 28.6 35 27.8 35 26.8C35 24.7 33.8 23.6 32 23.6C31 23.6 30 24 29.1 24.8L27 22.3C28.2 21.1 29.8 20.5 31.8 20.5C34.3 20.5 36.6 21.7 37.9 23.6C39.1 25.4 39.6 27.8 39.6 30.4C39.6 31.7 39.4 32.8 39.1 33.6C38.8 34.4 38.3 35 37.7 35.4C37.1 35.8 36.3 36 35.4 36C34.1 36 33 35.6 32 34.8V33.7Z" fill="#31A8FF"/>
</svg>
 