<svg width="48" height="48" viewBox="0 0 48 48" fill="none" xmlns="http://www.w3.org/2000/svg">
  <rect width="48" height="48" rx="10" fill="#2E001F"/>
  <path d="M13 34L19 24L13.2 14H18L21.6 21.8L25.2 14H30L24 24L30 34H25.2L21.6 26.4L18 34H13ZM32.2 33.8C30.1 33.8 28.4 33.1 27.1 31.7C25.9 30.2 25.3 28.2 25.3 25.6C25.3 23 25.9 21 27.1 19.6C28.4 18.1 30.1 17.4 32.2 17.4C33.6 17.4 34.8 17.7 35.9 18.2C37 18.7 37.9 19.5 38.6 20.5C39.3 21.6 39.6 22.8 39.6 24.3C39.6 25.7 39.3 27 38.6 28.1C37.9 29.2 37 30 35.9 30.5C34.8 31 33.6 31.3 32.2 31.3C31.4 31.3 30.6 31.2 29.8 31L30 28.2C30.5 28.4 31.1 28.5 31.8 28.5C32.6 28.5 33.3 28.3 33.8 27.8C34.4 27.3 34.6 26.5 34.6 25.4C34.6 24.2 34.4 23.3 33.8 22.7C33.3 22 32.6 21.7 31.7 21.7C30.2 21.7 29.3 22.6 29 24.5H26.2C26.4 22.1 27.2 20.3 28.6 19C30.1 17.7 31.8 17 33.9 17C36.2 17 38 17.7 39.3 19.1C40.7 20.5 41.3 22.4 41.3 24.7C41.3 27 40.7 28.9 39.3 30.3C38 31.7 36.2 32.4 33.9 32.4C31.8 32.4 30.1 31.7 28.6 30.4L29.4 28.1C30.5 29 31.7 29.5 33.1 29.5C34.3 29.5 35.3 29.2 36 28.5C36.8 27.8 37.2 26.8 37.2 25.5C37.2 24.2 36.8 23.2 36 22.4C35.2 21.5 34.2 21.1 33 21.1C31.7 21.1 30.7 21.5 29.9 22.4C29.1 23.3 28.7 24.6 28.7 26.3C28.7 27.9 29.1 29.2 29.9 30.1C30.6 31 31.7 31.5 33 31.5C34.2 31.5 35.2 31.2 35.9 30.5C36.7 29.8 37.1 28.8 37.1 27.5C37.1 26.2 36.7 25.2 36 24.5C35.2 23.8 34.2 23.5 33 23.5C31.8 23.5 30.8 23.8 30 24.5C29.3 25.2 28.9 26.2 28.9 27.5C28.9 28.8 29.3 29.8 30 30.5C30.8 31.2 31.8 31.5 33 31.5C34.2 31.5 35.2 31.2 35.9 30.5C36.7 29.8 37.1 28.8 37.1 27.5" fill="#FF61F6"/>
</svg>






